<svg width="24" height="24" viewBox="0 0 24 24" fill="none" xmlns="http://www.w3.org/2000/svg">
<path d="M24 12C24 18.6259 18.6259 24 12 24C9.6 24 7.36022 23.2957 5.48762 22.0773C2.18303 19.941 0 16.2259 0 12C0 5.37413 5.37079 0 12 0C17.6312 0 22.3544 3.87872 23.6495 9.10932C23.8765 10.0373 24 11.0053 24 12Z" fill="#47C2FF"/>
<path d="M12 23.2823C5.77801 23.2823 0.717651 18.222 0.717651 12C0.717651 5.77801 5.77801 0.717651 12 0.717651C18.222 0.717651 23.2823 5.77801 23.2823 12C23.2823 18.222 18.2186 23.2823 12 23.2823ZM12 1.24171C6.06842 1.24171 1.24171 6.06842 1.24171 12C1.24171 17.9316 6.06842 22.7583 12 22.7583C17.9316 22.7583 22.7583 17.9316 22.7583 12C22.7583 6.06842 17.9316 1.24171 12 1.24171Z" fill="white"/>
<path d="M23.2823 12.0001C23.2823 18.1085 18.4022 23.0988 12.3371 23.2757C12.2237 23.279 12.1135 23.2824 12 23.2824C9.76691 23.2824 7.68401 22.6315 5.93158 21.5066C6.12184 21.4198 6.30877 21.3297 6.48568 21.2362C10.7116 19.0265 11.8632 14.7238 15.4147 11.4226C16.9536 9.99394 19.0298 8.6721 21.8971 7.7842C22.064 7.73413 22.2309 7.68406 22.4011 7.63733C22.9385 8.91911 23.249 10.3177 23.2757 11.7864C23.279 11.8565 23.2823 11.93 23.2823 12.0001Z" fill="white"/>
<path d="M5.08376 16.1258C5.06707 16.1258 5.05372 16.1192 5.04371 16.1058C5.02702 16.0824 5.03035 16.0491 5.05038 16.0324L6.17194 15.1111C6.1953 15.0911 6.22869 15.0977 6.24537 15.1178C6.26206 15.1411 6.25873 15.1745 6.2387 15.1912L5.11714 16.1125C5.10713 16.1225 5.09711 16.1258 5.08376 16.1258Z" fill="white"/>
<path d="M5.47762 19.4804C5.46093 19.4804 5.44758 19.4737 5.43757 19.4604C5.42088 19.437 5.42088 19.4036 5.44425 19.3869L8.07123 17.234C8.09459 17.2173 8.12797 17.2206 8.14466 17.2406C8.16135 17.264 8.16135 17.2974 8.13799 17.3141L5.50767 19.4704C5.50099 19.4771 5.48764 19.4804 5.47762 19.4804Z" fill="white"/>
<path d="M9.57 17.2407C9.86128 17.2407 10.0974 17.0046 10.0974 16.7133C10.0974 16.422 9.86128 16.1859 9.57 16.1859C9.27873 16.1859 9.0426 16.422 9.0426 16.7133C9.0426 17.0046 9.27873 17.2407 9.57 17.2407Z" fill="white"/>
<path d="M12.0434 15.7852C14.5635 15.7852 16.6064 13.7423 16.6064 11.2222C16.6064 8.70211 14.5635 6.65918 12.0434 6.65918C9.52333 6.65918 7.48041 8.70211 7.48041 11.2222C7.48041 13.7423 9.52333 15.7852 12.0434 15.7852Z" fill="#B5D1EE"/>
<path d="M11.6762 15.4014C14.1963 15.4014 16.2392 13.3585 16.2392 10.8384C16.2392 8.31832 14.1963 6.27539 11.6762 6.27539C9.15615 6.27539 7.11322 8.31832 7.11322 10.8384C7.11322 13.3585 9.15615 15.4014 11.6762 15.4014Z" fill="white"/>
<path d="M2.24645 16.7899C2.19972 16.7899 2.15633 16.7699 2.12629 16.7331C2.07288 16.6664 2.08289 16.5662 2.14965 16.5128L5.83811 13.4853C5.90487 13.4319 6.00501 13.4419 6.05842 13.5087C6.11182 13.5754 6.10181 13.6756 6.03505 13.729L2.34326 16.7532C2.31321 16.7799 2.27983 16.7899 2.24645 16.7899Z" fill="white"/>
<path d="M3.83868 19.1901C3.79195 19.1901 3.74855 19.1701 3.71851 19.1334C3.6651 19.0666 3.67512 18.9665 3.74188 18.9131L6.93298 16.2961C6.99974 16.2427 7.09988 16.2527 7.15328 16.3195C7.20669 16.3862 7.19668 16.4864 7.12992 16.5398L3.93882 19.1534C3.90878 19.1768 3.8754 19.1901 3.83868 19.1901Z" fill="white"/>
<path d="M17.3457 16.8884C18.0984 16.2015 18.6193 15.5561 18.5091 15.4469C18.3989 15.3376 17.6994 15.8059 16.9468 16.4928C16.1941 17.1796 15.6732 17.825 15.7834 17.9343C15.8936 18.0435 16.5931 17.5753 17.3457 16.8884Z" fill="#B5D1EE"/>
</svg>
