<svg width="48" height="48" viewBox="0 0 48 48" fill="none" xmlns="http://www.w3.org/2000/svg">
<path d="M48 24C48 37.2518 37.2517 48 24 48C19.2 48 14.7204 46.5914 10.9752 44.1547C4.36606 39.8821 0 32.4518 0 24C0 10.7483 10.7416 0 24 0C35.2623 0 44.7088 7.75744 47.299 18.2186C47.753 20.0746 48 22.0106 48 24Z" fill="#47C2FF"/>
<path d="M24 46.5649C11.5561 46.5649 1.43536 36.4441 1.43536 24.0002C1.43536 11.5563 11.5561 1.43553 24 1.43553C36.444 1.43553 46.5647 11.5563 46.5647 24.0002C46.5647 36.4441 36.4373 46.5649 24 46.5649ZM24 2.48365C12.1369 2.48365 2.48349 12.1371 2.48349 24.0002C2.48349 35.8633 12.1369 45.5167 24 45.5167C35.8632 45.5167 45.5166 35.8633 45.5166 24.0002C45.5166 12.1371 35.8632 2.48365 24 2.48365Z" fill="white"/>
<path d="M46.5647 24.0001C46.5647 36.2171 36.8045 46.1976 24.6743 46.5514C24.4474 46.5581 24.2271 46.5648 24.0001 46.5648C19.5339 46.5648 15.3681 45.263 11.8632 43.0132C12.2437 42.8396 12.6176 42.6594 12.9714 42.4725C21.4232 38.053 23.7264 29.4477 30.8296 22.8452C33.9072 19.9879 38.0596 17.3442 43.7942 15.5684C44.128 15.4683 44.4618 15.3681 44.8023 15.2747C45.8771 17.8382 46.498 20.6355 46.5514 23.5729C46.5581 23.7131 46.5647 23.8599 46.5647 24.0001Z" fill="white"/>
<path d="M10.1675 32.2514C10.1341 32.2514 10.1074 32.2381 10.0874 32.2114C10.054 32.1647 10.0607 32.0979 10.1008 32.0645L12.3439 30.222C12.3906 30.1819 12.4574 30.1953 12.4908 30.2353C12.5241 30.2821 12.5175 30.3488 12.4774 30.3822L10.2343 32.2247C10.2143 32.2448 10.1942 32.2514 10.1675 32.2514Z" fill="white"/>
<path d="M10.9553 38.9607C10.9219 38.9607 10.8952 38.9473 10.8752 38.9206C10.8418 38.8739 10.8418 38.8071 10.8886 38.7738L16.1425 34.4678C16.1892 34.4344 16.256 34.4411 16.2894 34.4811C16.3228 34.5279 16.3228 34.5946 16.276 34.628L11.0154 38.9407C11.002 38.954 10.9753 38.9607 10.9553 38.9607Z" fill="white"/>
<path d="M19.14 34.4815C19.7226 34.4815 20.1948 34.0092 20.1948 33.4267C20.1948 32.8441 19.7226 32.3719 19.14 32.3719C18.5575 32.3719 18.0852 32.8441 18.0852 33.4267C18.0852 34.0092 18.5575 34.4815 19.14 34.4815Z" fill="white"/>
<path d="M24.0868 31.5704C29.1269 31.5704 33.2128 27.4845 33.2128 22.4443C33.2128 17.4042 29.1269 13.3183 24.0868 13.3183C19.0466 13.3183 14.9608 17.4042 14.9608 22.4443C14.9608 27.4845 19.0466 31.5704 24.0868 31.5704Z" fill="#B5D1EE"/>
<path d="M23.3524 30.8028C28.3925 30.8028 32.4784 26.7169 32.4784 21.6768C32.4784 16.6366 28.3925 12.5508 23.3524 12.5508C18.3122 12.5508 14.2264 16.6366 14.2264 21.6768C14.2264 26.7169 18.3122 30.8028 23.3524 30.8028Z" fill="white"/>
<path d="M4.49291 33.5798C4.39945 33.5798 4.31266 33.5398 4.25258 33.4663C4.14576 33.3328 4.16579 33.1325 4.29931 33.0257L11.6762 26.9706C11.8097 26.8638 12.01 26.8838 12.1168 27.0174C12.2237 27.1509 12.2036 27.3512 12.0701 27.458L4.68651 33.5064C4.62643 33.5598 4.55967 33.5798 4.49291 33.5798Z" fill="white"/>
<path d="M7.67742 38.3801C7.58396 38.3801 7.49717 38.3401 7.43708 38.2666C7.33027 38.1331 7.3503 37.9328 7.48382 37.826L13.866 32.5921C13.9995 32.4853 14.1998 32.5053 14.3066 32.6388C14.4134 32.7723 14.3934 32.9726 14.2599 33.0794L7.8777 38.3067C7.81761 38.3534 7.75085 38.3801 7.67742 38.3801Z" fill="white"/>
<path d="M34.6913 33.7769C36.1967 32.4032 37.2384 31.1124 37.018 30.8939C36.7977 30.6754 35.3987 31.6119 33.8934 32.9856C32.3881 34.3594 31.3463 35.6501 31.5667 35.8686C31.787 36.0871 33.186 35.1506 34.6913 33.7769Z" fill="#B5D1EE"/>
</svg>
