<?xml version="1.0" standalone="no"?>
<!DOCTYPE svg PUBLIC "-//W3C//DTD SVG 20010904//EN"
 "http://www.w3.org/TR/2001/REC-SVG-20010904/DTD/svg10.dtd">
<svg version="1.0" xmlns="http://www.w3.org/2000/svg"
 width="256.000000pt" height="256.000000pt" viewBox="0 0 256.000000 256.000000"
 preserveAspectRatio="xMidYMid meet">
<metadata>
Created by potrace 1.14, written by Peter Selinger 2001-2017
</metadata>
<g transform="translate(0.000000,256.000000) scale(0.100000,-0.100000)"
fill="#000000" stroke="none">
<path d="M1138 2554 c-2 -2 -24 -6 -49 -8 -24 -3 -59 -10 -76 -15 -18 -5 -33
-8 -33 -5 0 3 -8 0 -19 -5 -10 -6 -33 -13 -52 -16 -18 -3 -38 -10 -44 -14 -5
-4 -31 -14 -57 -22 -27 -7 -48 -17 -48 -21 0 -4 -7 -8 -15 -8 -17 0 -56 -20
-66 -33 -3 -5 -10 -9 -15 -9 -7 1 -76 -41 -152 -93 -68 -46 -186 -166 -260
-264 -82 -109 -172 -290 -198 -396 -9 -35 -10 -40 -17 -60 -7 -22 -14 -58 -25
-125 -9 -55 -8 -320 1 -375 4 -22 14 -67 22 -100 8 -33 17 -69 20 -80 23 -101
142 -322 235 -436 79 -98 275 -269 308 -269 5 0 12 -4 14 -8 4 -9 181 -101
206 -107 9 -2 36 -11 60 -20 24 -8 51 -17 60 -18 9 -2 35 -9 57 -15 69 -20
126 -25 275 -26 157 -1 224 6 310 30 30 8 64 17 75 19 23 5 81 28 145 58 25
11 50 21 55 23 23 5 155 90 220 143 59 47 133 118 189 181 14 16 83 113 103
145 62 97 163 347 163 402 0 11 3 22 6 26 10 10 18 113 18 252 1 133 -4 182
-24 270 -7 28 -13 55 -14 62 -1 7 -5 16 -9 19 -4 4 -7 15 -7 25 0 10 -7 35
-16 56 -9 21 -20 47 -24 58 -15 41 -75 152 -109 204 -20 29 -40 61 -46 69 -5
9 -25 31 -42 49 -18 19 -33 37 -33 41 0 4 -25 30 -56 57 -30 28 -69 63 -85 78
-16 16 -29 25 -29 20 0 -4 -4 -3 -8 3 -30 46 -308 191 -399 208 -10 2 -43 11
-73 19 -30 9 -73 19 -95 22 -44 7 -342 15 -347 9z"/>
</g>
</svg>
