<svg width="171" height="43" viewBox="0 0 171 43" fill="none" xmlns="http://www.w3.org/2000/svg">
<path d="M50.4654 29.1423C49.9843 28.5477 49.7437 28.0199 49.7437 27.5455C49.7437 27.0712 50.138 26.4499 50.9332 25.6749C51.3943 25.234 51.8888 25.0068 52.4033 25.0068C52.9178 25.0068 53.6395 25.4678 54.5684 26.3964C54.829 26.7104 55.1965 27.0111 55.6777 27.2983C56.1588 27.5856 56.5998 27.7259 57.0075 27.7259C58.7248 27.7259 59.5869 27.0244 59.5869 25.6148C59.5869 25.1872 59.353 24.8331 58.8785 24.5458C58.4041 24.2585 57.8227 24.0514 57.1144 23.9245C56.4127 23.7976 55.6509 23.5905 54.8424 23.3032C54.0271 23.0159 53.272 22.6819 52.5704 22.2877C51.8687 21.9002 51.2807 21.2856 50.8062 20.4438C50.3318 19.602 50.0979 18.5932 50.0979 17.404C50.0979 15.7805 50.706 14.3575 51.9155 13.1483C53.125 11.939 54.7755 11.3311 56.8671 11.3311C57.9764 11.3311 58.9921 11.4714 59.9076 11.7586C60.8231 12.0459 61.4579 12.3399 61.8054 12.6338L62.5004 13.1616C63.0751 13.6961 63.3624 14.1504 63.3624 14.5178C63.3624 14.8853 63.1419 15.393 62.6942 16.0411C62.066 16.963 61.4178 17.4307 60.7496 17.4307C60.362 17.4307 59.8809 17.2436 59.3062 16.8762C59.2527 16.8361 59.1458 16.7492 58.9854 16.5956C58.8251 16.4486 58.6847 16.3283 58.5578 16.2348C58.1702 15.9943 57.6757 15.874 57.0743 15.874C56.4729 15.874 55.9717 16.0143 55.5774 16.3016C55.1765 16.5889 54.9827 16.9831 54.9827 17.4975C54.9827 18.0052 55.2166 18.4195 55.691 18.7335C56.1655 19.0475 56.7468 19.2613 57.4552 19.3681C58.1568 19.4817 58.9253 19.6487 59.7606 19.8826C60.5959 20.1164 61.3577 20.397 62.066 20.731C62.7677 21.0651 63.3557 21.6396 63.8302 22.4614C64.3046 23.2831 64.5385 24.2986 64.5385 25.5012C64.5385 26.7037 64.2979 27.7593 63.8168 28.6746C63.3357 29.5899 62.7075 30.2981 61.9324 30.7991C60.4355 31.7812 58.8317 32.2689 57.1344 32.2689C56.2657 32.2689 55.4438 32.162 54.6686 31.9482C53.8935 31.7344 53.2653 31.4739 52.7842 31.1599C51.8019 30.5653 51.1203 29.9974 50.7327 29.4429L50.4654 29.1423Z" fill="white"/>
<path d="M74.4619 17.3838C76.3129 17.3838 77.8498 18.092 79.0794 19.5083C80.309 20.9246 80.9237 22.6483 80.9237 24.6793V29.563C80.9237 29.9906 80.9104 30.3046 80.8837 30.5184C80.8569 30.7322 80.7767 30.966 80.6498 31.2266C80.3892 31.7276 79.6675 31.9748 78.4847 31.9748C77.1682 31.9748 76.4131 31.6341 76.2127 30.946C76.0991 30.632 76.0456 30.1576 76.0456 29.5296V24.6526C76.0456 23.8976 75.8251 23.303 75.3907 22.8755C74.9564 22.4479 74.375 22.2408 73.6399 22.2408C72.9116 22.2408 72.3168 22.4612 71.8624 22.9089C71.408 23.3498 71.1808 23.9377 71.1808 24.6593V29.5697C71.1808 29.9973 71.1675 30.3113 71.1407 30.5251C71.114 30.7388 71.0271 30.9727 70.8801 31.2332C70.6395 31.7343 69.9245 31.9815 68.7417 31.9815C67.579 31.9815 66.864 31.7343 66.6034 31.2332C66.4764 30.9526 66.3962 30.7121 66.3695 30.4983C66.3428 30.2845 66.3294 29.9639 66.3294 29.543V19.7221C66.3294 19.3146 66.3428 19.0072 66.3695 18.7935C66.3962 18.5797 66.4831 18.3458 66.6301 18.0853C66.8907 17.6243 67.5991 17.3905 68.7685 17.3905C69.8978 17.3905 70.5928 17.6043 70.8467 18.0252C71.0338 18.3392 71.1274 18.72 71.1274 19.1609C71.2009 19.034 71.3679 18.8469 71.6285 18.6064C71.8892 18.3659 72.1364 18.1721 72.377 18.0252C73.0051 17.5976 73.7001 17.3838 74.4619 17.3838Z" fill="white"/>
<path d="M85.0535 19.2139C86.6038 17.7709 88.3813 17.0493 90.3793 17.0493C92.3773 17.0493 94.1415 17.7642 95.6784 19.2006C97.2154 20.6303 97.9839 22.4608 97.9839 24.6789C97.9839 26.2155 97.5829 27.5784 96.7944 28.7676C95.9992 29.9568 95.0302 30.8386 93.8942 31.3998C92.7582 31.961 91.5755 32.2483 90.3593 32.2483C89.1364 32.2483 87.9536 31.9477 86.8109 31.3464C85.6615 30.7451 84.6993 29.8565 83.9108 28.6807C83.1222 27.5049 82.7347 26.1821 82.7347 24.6989C82.728 22.4875 83.5031 20.657 85.0535 19.2139ZM88.5216 26.6898C89.1163 27.1441 89.7178 27.3713 90.3258 27.3713C90.9339 27.3713 91.5487 27.1374 92.1568 26.6764C92.7649 26.2155 93.0723 25.5273 93.0723 24.6254C93.0723 23.7168 92.785 23.0421 92.2103 22.6011C91.6356 22.1602 91.0141 21.933 90.3526 21.933C89.6843 21.933 89.0696 22.1669 88.4949 22.6278C87.9202 23.0888 87.6329 23.7703 87.6329 24.6655C87.6329 25.5607 87.9336 26.2355 88.5216 26.6898Z" fill="white"/>
<path d="M117.931 17.4972C119.114 18.0183 119.708 18.653 119.708 19.408C119.708 19.722 119.561 20.223 119.267 20.9178C118.973 21.6127 118.719 22.2139 118.519 22.735L115.465 30.1709C115.184 30.9859 114.723 31.5605 114.075 31.8878C113.794 32.0148 113.447 32.0816 113.019 32.0816C112.592 32.0816 112.184 31.9212 111.783 31.5939C111.382 31.2732 111.121 30.9392 110.994 30.6118L110.774 30.1375C110.627 29.77 110.079 28.3269 109.137 25.8082C108.95 26.2492 108.676 26.9774 108.322 27.9862C107.961 28.995 107.727 29.623 107.627 29.8702C107.526 30.1174 107.459 30.2844 107.433 30.3713C107.406 30.4515 107.326 30.6051 107.199 30.8323C107.072 31.0527 106.918 31.2465 106.758 31.4135C106.317 31.8544 105.802 32.0816 105.234 32.0816C104.66 32.0816 104.178 31.9212 103.791 31.5939C103.403 31.2732 103.143 30.9392 103.016 30.6118L98.8258 20.4034C98.6387 19.8489 98.5452 19.4881 98.5452 19.3211C98.5452 18.5795 99.0731 17.9983 100.129 17.5707C100.724 17.3302 101.198 17.21 101.572 17.21C101.94 17.21 102.241 17.2901 102.474 17.4438C102.708 17.6041 102.869 17.7578 102.962 17.9181C103.056 18.0785 103.129 18.2388 103.183 18.4058C103.497 19.1474 104.152 20.8844 105.154 23.6169L106.791 19.1207C106.905 18.7532 107.105 18.4259 107.399 18.152C107.934 17.6175 108.482 17.3503 109.037 17.3503C109.591 17.3503 110.066 17.4972 110.467 17.7912C110.861 18.0852 111.135 18.3858 111.282 18.6798L111.502 19.1541C112.425 21.7463 112.972 23.2227 113.14 23.5902L114.83 18.9871C115.271 17.8046 115.939 17.21 116.828 17.21C117.169 17.2166 117.537 17.3102 117.931 17.4972Z" fill="white"/>
<path d="M129.244 17.4104C130.888 17.4104 132.405 18.1386 133.781 19.6017C135.158 21.0648 135.846 22.7618 135.846 24.6925C135.846 26.6233 135.165 28.3136 133.795 29.77C132.425 31.2198 130.955 31.948 129.384 31.948C127.814 31.948 126.691 31.507 126.03 30.6185C125.883 31.5271 125.088 31.9747 123.644 31.9747C122.481 31.9747 121.766 31.7275 121.506 31.2264C121.379 30.9458 121.299 30.7053 121.272 30.4915C121.245 30.2777 121.232 29.9571 121.232 29.5362V12.9743C121.232 12.5467 121.245 12.2327 121.272 12.0189C121.299 11.8051 121.379 11.5713 121.506 11.3108C121.766 10.8097 122.488 10.5625 123.671 10.5625C124.834 10.5625 125.542 10.8097 125.783 11.3108C125.93 11.5914 126.016 11.8319 126.043 12.0457C126.07 12.2594 126.083 12.5801 126.083 13.001V18.7733C126.825 17.8647 127.874 17.4104 129.244 17.4104ZM126.818 26.3694C127.273 26.8705 127.841 27.1177 128.522 27.1177C129.204 27.1177 129.792 26.8705 130.273 26.3694C130.754 25.8684 130.995 25.3139 130.995 24.7059C130.995 24.0979 130.774 23.5368 130.327 23.029C129.886 22.5213 129.291 22.2674 128.549 22.2674C127.807 22.2674 127.219 22.5279 126.785 23.0424C126.351 23.5635 126.13 24.118 126.13 24.7193C126.137 25.3205 126.364 25.8751 126.818 26.3694Z" fill="white"/>
<path d="M147.14 18.9401C147.253 17.9046 147.982 17.3901 149.331 17.3901C150.053 17.3901 150.588 17.4436 150.942 17.5572C151.296 17.6707 151.537 17.8645 151.677 18.1384C151.817 18.419 151.897 18.6595 151.924 18.8733C151.951 19.0871 151.964 19.4078 151.964 19.8287V29.5293C151.964 29.9569 151.951 30.2709 151.924 30.4846C151.897 30.6984 151.817 30.9389 151.69 31.2195C151.43 31.7006 150.795 31.9411 149.792 31.9411C148.783 31.9411 148.108 31.8141 147.768 31.5669C147.427 31.3197 147.226 30.9523 147.173 30.4713C146.491 31.4534 145.349 31.9411 143.745 31.9411C142.148 31.9411 140.658 31.2129 139.294 29.7497C137.925 28.2866 137.243 26.5897 137.243 24.6589C137.243 22.7282 137.931 21.0379 139.308 19.5815C140.684 18.1317 142.195 17.4035 143.845 17.4035C144.473 17.4035 145.048 17.5171 145.562 17.7375C146.077 17.958 146.438 18.1651 146.645 18.3589C146.846 18.566 147.013 18.753 147.14 18.9401ZM142.088 24.7057C142.088 25.3136 142.328 25.8682 142.809 26.3559C143.29 26.8436 143.872 27.0908 144.56 27.0908C145.242 27.0908 145.81 26.8436 146.264 26.3425C146.719 25.8414 146.946 25.2936 146.946 24.6923C146.946 24.091 146.725 23.5299 146.291 23.0154C145.857 22.501 145.275 22.2404 144.54 22.2404C143.812 22.2404 143.217 22.501 142.763 23.0154C142.315 23.5299 142.088 24.0977 142.088 24.7057Z" fill="white"/>
<path d="M159.288 27.0911C159.896 27.0911 160.351 27.2514 160.645 27.5654C160.939 27.8794 161.086 28.5275 161.086 29.5095C161.086 30.4916 160.925 31.1397 160.611 31.467C160.297 31.7877 159.843 31.9547 159.255 31.9547C157.384 31.9547 156.074 31.5071 155.319 30.6119C154.557 29.7166 154.183 28.2201 154.183 26.1357V12.8942C154.183 12.4666 154.196 12.1526 154.223 11.9389C154.25 11.7251 154.33 11.4846 154.457 11.204C154.717 10.7229 155.439 10.4824 156.622 10.4824C157.751 10.4824 158.453 10.743 158.733 11.2574C158.88 11.518 158.967 11.7518 158.994 11.9656C159.021 12.1794 159.034 12.5 159.034 12.9209V26.2359C159.041 26.8038 159.121 27.0911 159.288 27.0911ZM166.752 26.924C166.899 27.0376 167.28 27.0911 167.888 27.0911C168.496 27.0911 169.004 27.2514 169.412 27.5654C169.82 27.8794 170.02 28.5275 170.02 29.5095C170.02 30.4916 169.799 31.1397 169.365 31.467C168.931 31.7877 168.323 31.9547 167.548 31.9547C163.625 31.9547 161.667 30.0106 161.667 26.129L161.64 12.9009C161.64 12.4733 161.654 12.1593 161.68 11.9455C161.707 11.7317 161.794 11.4912 161.941 11.2106C162.222 10.7296 162.937 10.4891 164.106 10.4891C165.235 10.4891 165.937 10.7497 166.218 11.2641C166.418 11.6716 166.525 12.2261 166.525 12.9276V26.2426C166.532 26.5833 166.605 26.8172 166.752 26.924Z" fill="white"/>
<g clip-path="url(#clip0)">
<path d="M21.3836 40.8119C32.1188 40.8119 40.8213 32.1113 40.8213 21.3786C40.8213 10.6459 32.1188 1.94531 21.3836 1.94531C10.6485 1.94531 1.94592 10.6459 1.94592 21.3786C1.94592 32.1113 10.6485 40.8119 21.3836 40.8119Z" fill="#33A9FF"/>
<path d="M31.7574 39.6418C22.4609 45.0078 11.1462 42.8165 6.48724 34.7487C6.48724 34.7487 6.69039 33.5355 9.6841 32.9048C10.3363 32.7658 12.8248 32.5788 14.5943 30.5077C14.9498 30.0935 15.2492 28.6103 18.43 28.0144C21.1939 27.496 21.0041 28.001 22.9794 25.6066C24.3587 23.9364 24.7142 22.8728 27.1278 22.4346C28.8706 22.1165 30.0173 22.3624 31.1961 20.6708C31.99 19.5324 32.6315 18.0866 35.4755 17.7312C38.9423 17.2983 40.1532 15.3154 40.1532 15.3154C44.8148 23.3859 41.054 34.2757 31.7574 39.6418Z" fill="white"/>
<path d="M26.8278 27.8193C28.3939 26.9154 29.4959 25.8924 29.2892 25.5346C29.0825 25.1767 27.6454 25.6194 26.0794 26.5234C24.5133 27.4273 23.4113 28.4503 23.618 28.8081C23.8247 29.166 25.2617 28.7233 26.8278 27.8193Z" fill="#C7D8EF"/>
<path d="M42.3637 17.2313C40.4338 7.40775 31.7734 0 21.3836 0C9.57453 0 0 9.57235 0 21.3788C0 27.6935 2.73711 33.3696 7.09402 37.2819C10.8816 40.6865 15.8907 42.7576 21.3836 42.7576C33.1928 42.7576 42.7673 33.1852 42.7673 21.3788C42.7673 19.9598 42.6283 18.5728 42.3637 17.2313ZM21.3836 40.6197C16.6846 40.6197 12.3758 38.9361 9.03459 36.1355C4.81934 32.608 2.13836 27.3061 2.13836 21.3788C2.13836 10.7535 10.756 2.13788 21.3836 2.13788C30.9849 2.13788 38.9423 9.16616 40.3937 18.3564C40.5487 19.3398 40.6289 20.3499 40.6289 21.3788C40.6289 32.004 32.0113 40.6197 21.3836 40.6197Z" fill="#EBF6FF"/>
<path d="M15.6769 27.0468C16.2334 27.0468 16.6846 26.5957 16.6846 26.0393C16.6846 25.4828 16.2334 25.0317 15.6769 25.0317C15.1204 25.0317 14.6692 25.4828 14.6692 26.0393C14.6692 26.5957 15.1204 27.0468 15.6769 27.0468Z" fill="white"/>
<path d="M16.4921 26.2798C16.2649 26.7875 15.6688 27.0173 15.161 26.7902C15.0006 26.718 14.867 26.6085 14.7681 26.4775C14.867 26.686 15.038 26.8597 15.2652 26.9612C15.7731 27.1884 16.3692 26.9612 16.5964 26.4508C16.7514 26.1034 16.6953 25.7159 16.4788 25.4326C16.6044 25.6892 16.6177 25.9965 16.4921 26.2798Z" fill="#C7D8EF"/>
<path d="M14.9685 30.0828C15.2284 30.0828 15.439 29.8722 15.439 29.6124C15.439 29.3527 15.2284 29.1421 14.9685 29.1421C14.7087 29.1421 14.4981 29.3527 14.4981 29.6124C14.4981 29.8722 14.7087 30.0828 14.9685 30.0828Z" fill="white"/>
<path d="M15.3481 29.7302C15.2385 29.9654 14.9605 30.0669 14.7253 29.96C14.6504 29.9253 14.589 29.8745 14.5435 29.8131C14.589 29.9119 14.6665 29.9921 14.7734 30.0429C15.0086 30.1524 15.2893 30.0509 15.3962 29.8131C15.471 29.6527 15.447 29.471 15.3481 29.3374C15.4042 29.4577 15.4069 29.5993 15.3481 29.7302Z" fill="#C7D8EF"/>
<path d="M10.4005 31.9558C10.6603 31.9558 10.871 31.7452 10.871 31.4855C10.871 31.2257 10.6603 31.0151 10.4005 31.0151C10.1407 31.0151 9.93005 31.2257 9.93005 31.4855C9.93005 31.7452 10.1407 31.9558 10.4005 31.9558Z" fill="white"/>
<path d="M10.7934 31.5442C10.7213 31.7928 10.462 31.9371 10.2107 31.8649C10.1305 31.8409 10.0637 31.8008 10.0103 31.7473C10.0691 31.8382 10.1599 31.9077 10.2722 31.9398C10.5208 32.0119 10.7827 31.8676 10.8549 31.6191C10.903 31.448 10.8522 31.2743 10.7346 31.1567C10.8068 31.2636 10.8335 31.4053 10.7934 31.5442Z" fill="#C7D8EF"/>
<path d="M7.75689 30.318C7.8868 30.318 7.99211 30.2127 7.99211 30.0828C7.99211 29.9529 7.8868 29.8477 7.75689 29.8477C7.62698 29.8477 7.52167 29.9529 7.52167 30.0828C7.52167 30.2127 7.62698 30.318 7.75689 30.318Z" fill="white"/>
<path d="M7.952 30.1147C7.91458 30.2376 7.78361 30.3098 7.65798 30.2724C7.61789 30.2617 7.58581 30.2403 7.55908 30.2109C7.58848 30.2563 7.63392 30.2911 7.68738 30.3071C7.81034 30.3445 7.94398 30.275 7.9814 30.1495C8.00813 30.064 7.9814 29.9758 7.92527 29.917C7.96002 29.9758 7.97338 30.0453 7.952 30.1147Z" fill="#C7D8EF"/>
<path d="M12.6618 28.6692C12.9216 28.6692 13.1322 28.4586 13.1322 28.1988C13.1322 27.9391 12.9216 27.7285 12.6618 27.7285C12.402 27.7285 12.1914 27.9391 12.1914 28.1988C12.1914 28.4586 12.402 28.6692 12.6618 28.6692Z" fill="white"/>
<path d="M13.0547 28.2469C12.9906 28.4981 12.734 28.6477 12.4827 28.5836C12.4025 28.5622 12.333 28.5221 12.2769 28.4714C12.3384 28.5596 12.4319 28.6264 12.5415 28.6558C12.7928 28.7199 13.0494 28.5702 13.1135 28.319C13.159 28.148 13.1029 27.9743 12.9826 27.8594C13.0628 27.9663 13.0922 28.1079 13.0547 28.2469Z" fill="#C7D8EF"/>
<path d="M9.1709 29.2728C9.13882 29.2728 9.10942 29.2594 9.08804 29.2327C9.05062 29.1872 9.05863 29.1204 9.10407 29.083L14.3244 24.9329C14.3698 24.8955 14.4366 24.9035 14.474 24.9489C14.5115 24.9943 14.5034 25.0612 14.458 25.0986L9.23772 29.2487C9.21901 29.2647 9.19496 29.2728 9.1709 29.2728Z" fill="white"/>
<path d="M7.96808 26.8919C7.936 26.8919 7.9066 26.8785 7.88522 26.8518C7.8478 26.8064 7.85581 26.7396 7.90126 26.7022L13.1216 22.552C13.167 22.5146 13.2338 22.5226 13.2712 22.5681C13.3087 22.6135 13.3006 22.6803 13.2552 22.7177L8.0349 26.8678C8.01352 26.8866 7.99214 26.8919 7.96808 26.8919Z" fill="white"/>
<path d="M11.745 25.5395C11.729 25.5395 11.7129 25.5314 11.7022 25.5181C11.6835 25.494 11.6889 25.462 11.7103 25.4433L13.6588 23.8933C13.6829 23.8746 13.7149 23.8799 13.7336 23.9013C13.7523 23.9253 13.747 23.9574 13.7256 23.9761L11.7771 25.5261C11.7691 25.5341 11.7584 25.5395 11.745 25.5395Z" fill="white"/>
<path d="M11.2772 30.954C11.2612 30.954 11.2452 30.9459 11.2345 30.9326C11.2158 30.9085 11.2211 30.8765 11.2425 30.8577L13.1911 29.3078C13.2151 29.2891 13.2472 29.2945 13.2659 29.3158C13.2846 29.3399 13.2793 29.372 13.2579 29.3907L11.3093 30.9406C11.2986 30.9486 11.2879 30.954 11.2772 30.954Z" fill="white"/>
<path d="M11.0901 22.7147C11.0741 22.7147 11.058 22.7067 11.0473 22.6934C11.0286 22.6693 11.034 22.6372 11.0553 22.6185L12.5148 21.4587C12.5388 21.44 12.5709 21.4453 12.5896 21.4667C12.6083 21.4908 12.603 21.5228 12.5816 21.5415L11.1222 22.7014C11.1142 22.7121 11.1035 22.7147 11.0901 22.7147Z" fill="white"/>
<path d="M20.7983 25.7669C24.9317 25.7669 28.2825 22.4169 28.2825 18.2843C28.2825 14.1518 24.9317 10.8018 20.7983 10.8018C16.6648 10.8018 13.314 14.1518 13.314 18.2843C13.314 22.4169 16.6648 25.7669 20.7983 25.7669Z" fill="white"/>
<path d="M20.7983 25.7669C24.9317 25.7669 28.2825 22.4169 28.2825 18.2843C28.2825 14.1518 24.9317 10.8018 20.7983 10.8018C16.6648 10.8018 13.314 14.1518 13.314 18.2843C13.314 22.4169 16.6648 25.7669 20.7983 25.7669Z" fill="white"/>
<path d="M28.2825 18.284C28.2825 22.4154 24.9306 25.7666 20.7983 25.7666C17.8607 25.7666 15.3187 24.075 14.0945 21.6137C15.4657 23.2038 17.4972 24.2112 19.7611 24.2112C23.8935 24.2112 27.2454 20.8601 27.2454 16.7287C27.2454 15.5315 26.9648 14.4037 26.4649 13.3989C27.5983 14.7084 28.2825 16.416 28.2825 18.284Z" fill="#C7D8EF"/>
</g>
<defs>
<clipPath id="clip0">
<rect width="42.7673" height="42.7576" fill="white"/>
</clipPath>
</defs>
</svg>
