<svg xmlns="http://www.w3.org/2000/svg" viewBox="0 0 392.47 392.49"><defs><style>.cls-1{fill:#47c2ff;}.cls-2{fill:#fff;}.cls-3{fill:#b5d1ee;}</style></defs><g id="Capa_2" data-name="Capa 2"><g id="Capa_1-2" data-name="Capa 1"><path class="cls-1" d="M392.47,196.25c0,108.38-87.86,196.24-196.23,196.24A196.21,196.21,0,0,1,0,196.25C0,87.86,87.86,0,196.24,0c92.08,0,169.34,63.43,190.49,149A195.94,195.94,0,0,1,392.47,196.25Z"/><path class="cls-2" d="M196.24,380.75C94.5,380.75,11.74,298,11.74,196.24S94.5,11.75,196.24,11.75s184.5,82.76,184.5,184.49S298,380.75,196.24,380.75Zm0-360.47c-97,0-176,78.94-176,176s78.94,176,176,176,176-78.94,176-176S293.26,20.28,196.24,20.28Z"/><path class="cls-2" d="M380.73,196.24c0,99.89-79.78,181.49-179,184.42-1.83.06-3.68.09-5.52.09a183.36,183.36,0,0,1-99.24-29q4.68-2.12,9.08-4.42c69.09-36.13,87.94-106.49,146-160.48,25.18-23.39,59.1-45,106-59.48,2.7-.83,5.45-1.65,8.24-2.43a183.57,183.57,0,0,1,14.31,67.86C380.72,193.92,380.73,195.08,380.73,196.24Z"/><path class="cls-2" d="M83.15,263.72a.86.86,0,0,1-.54-1.52l18.37-15a.86.86,0,0,1,1.2.12.85.85,0,0,1-.12,1.2l-18.36,15A.89.89,0,0,1,83.15,263.72Z"/><path class="cls-2" d="M89.56,318.6a.85.85,0,0,1-.66-.31.86.86,0,0,1,.12-1.21l43-35.21a.85.85,0,0,1,1.08,1.32l-43,35.21A.86.86,0,0,1,89.56,318.6Z"/><circle class="cls-2" cx="156.52" cy="273.33" r="8.61"/><circle class="cls-3" cx="196.97" cy="183.51" r="74.61"/><circle class="cls-2" cx="190.98" cy="177.26" r="74.61"/><path class="cls-2" d="M36.71,274.59a2.56,2.56,0,0,1-1.62-4.54l60.4-49.51a2.56,2.56,0,0,1,3.25,4L38.33,274A2.54,2.54,0,0,1,36.71,274.59Z"/><path class="cls-2" d="M62.79,313.83a2.56,2.56,0,0,1-1.63-4.54l52.21-42.82a2.56,2.56,0,0,1,3.24,4l-52.2,42.82A2.56,2.56,0,0,1,62.79,313.83Z"/><ellipse class="cls-3" cx="282.58" cy="271" rx="29.22" ry="4.41" transform="translate(-108.77 259.34) rotate(-42.1)"/></g></g></svg>