<svg xmlns="http://www.w3.org/2000/svg" viewBox="0 0 1050 257.06"><defs><style>.cls-1{fill:#fff;}.cls-2{fill:#47c2ff;}.cls-3{fill:#b5d1ee;}</style></defs><g id="Capa_2" data-name="Capa 2"><g id="Capa_1-2" data-name="Capa 1"><path class="cls-1" d="M308,184q-4.48-5.5-4.48-9.12,0-5.17,7.4-12.4,4.31-4.12,8.61-4.13,5.34,0,13.08,7.75l.86.86a28.62,28.62,0,0,0,2.07,2.23,29.2,29.2,0,0,0,5.34,3.71,15.34,15.34,0,0,0,7.74,2.32q16,0,16-13.08,0-4-4.39-6.63a32.24,32.24,0,0,0-10.93-3.88,99.85,99.85,0,0,1-28.23-10.15,28.5,28.5,0,0,1-10.93-11.45q-4.4-7.83-4.39-18.85,0-15.15,11.27-26.43t30.73-11.27a62.81,62.81,0,0,1,18.85,2.67q8.52,2.67,11.8,5.42l3.44,2.58.86.69q5.34,5,5.34,8.26,0,3.61-4.13,9.64-5.86,8.61-12.06,8.61-3.61,0-8.95-3.44a21.06,21.06,0,0,1-2-1.72,18.6,18.6,0,0,0-2.67-2.16,15.94,15.94,0,0,0-4-1.55,25.64,25.64,0,0,0-6.63-.77,13.17,13.17,0,0,0-7.83,2.67,8.21,8.21,0,0,0-3.7,7,9.21,9.21,0,0,0,4.39,8.09,27,27,0,0,0,10.93,4,128.44,128.44,0,0,1,14.29,3.19A88.58,88.58,0,0,1,380,131.88q6.54,3.09,10.93,10.76t4.39,19a41.31,41.31,0,0,1-4.48,19.54,34.34,34.34,0,0,1-11.62,13.17,55.61,55.61,0,0,1-14.72,6.88,53.31,53.31,0,0,1-15.15,2.24,57.79,57.79,0,0,1-15.32-2,44.26,44.26,0,0,1-11.79-4.82,61.55,61.55,0,0,1-7.92-5.76,27,27,0,0,1-4.73-5Z"/><path class="cls-1" d="M456.94,111.05q17.21,0,28.66,13.17t11.45,32.1v30.3a50.41,50.41,0,0,1-.26,5.94,13.85,13.85,0,0,1-1.55,4.48,7.31,7.31,0,0,1-4.56,3.53,30.41,30.41,0,0,1-8.78,1,26.83,26.83,0,0,1-7.4-.86,14.69,14.69,0,0,1-4.48-2,6.69,6.69,0,0,1-2.32-3.53,16.1,16.1,0,0,1-.86-4c-.06-1-.09-2.64-.09-4.82v-30.3q0-7.05-4.05-11t-10.93-4a14.94,14.94,0,0,0-10.93,4.14,14.48,14.48,0,0,0-4.22,10.84v30.47a50.89,50.89,0,0,1-.25,5.94,14.09,14.09,0,0,1-1.55,4.48,7.36,7.36,0,0,1-4.57,3.53,30.37,30.37,0,0,1-8.78,1,29.54,29.54,0,0,1-8.6-1A7.23,7.23,0,0,1,408.3,197a15,15,0,0,1-1.55-4.56,50.89,50.89,0,0,1-.25-5.94V125.51a48.86,48.86,0,0,1,.25-5.77,12.39,12.39,0,0,1,1.64-4.39A7.42,7.42,0,0,1,413,112a32,32,0,0,1,8.61-.94,28.55,28.55,0,0,1,8.43,1,7.7,7.7,0,0,1,4.48,3,10.6,10.6,0,0,1,1.46,3.36,20.51,20.51,0,0,1,.26,3.61,11.61,11.61,0,0,1,1-1.2q.6-.69,2.58-2.58a29.35,29.35,0,0,1,4.22-3.36,26.42,26.42,0,0,1,5.76-2.67A22.08,22.08,0,0,1,456.94,111.05Z"/><path class="cls-1" d="M555.41,109q18.93,0,33.22,13.34t14.29,34a44.79,44.79,0,0,1-7.4,25.4,46.45,46.45,0,0,1-18,16.35,48.5,48.5,0,0,1-21.78,5.25,47.24,47.24,0,0,1-22.21-5.59,48.92,48.92,0,0,1-18-16.53,43.39,43.39,0,0,1-7.31-24.71q0-20.66,14.46-34.08T555.41,109ZM544.22,168.8A18.23,18.23,0,0,0,555.41,173q5.69,0,11.36-4.3T572.45,156q0-8.43-5.34-12.57a18.92,18.92,0,0,0-11.87-4.13,17.61,17.61,0,0,0-11.19,4.3q-5.34,4.3-5.34,12.57Q538.71,164.6,544.22,168.8Z"/><path class="cls-1" d="M726.7,111.74q11,4.82,11,11.87a15.64,15.64,0,0,1-1.55,6.37q-4,9.48-5.85,14.29l-18.94,46.14c-.12.34-.26.77-.43,1.29a19.13,19.13,0,0,1-1.46,2.84,20.45,20.45,0,0,1-2.67,3.62,14.48,14.48,0,0,1-4.05,2.84,12.51,12.51,0,0,1-5.68,1.29,13.16,13.16,0,0,1-8.52-3,15.43,15.43,0,0,1-4.91-6.12l-1.37-2.92q-1-2.58-5.34-14t-4.82-12.83q-1.73,4.14-5.08,13.51T662,190.41c-.11.34-.26.77-.43,1.29a19.13,19.13,0,0,1-1.46,2.84,17.82,17.82,0,0,1-2.76,3.62,15.51,15.51,0,0,1-4.21,2.84,13.14,13.14,0,0,1-5.77,1.29,12.82,12.82,0,0,1-8.44-3,15.66,15.66,0,0,1-4.82-6.12l-1.37-2.92-24.62-60.43a28.64,28.64,0,0,1-1.72-6.71q0-6.88,9.81-10.85a25.71,25.71,0,0,1,9.29-2.24,9.12,9.12,0,0,1,5.26,1.47,9.9,9.9,0,0,1,3,2.92,36.56,36.56,0,0,1,1.89,3.88q.17.51,5.6,15.06t6.11,16.44l10.16-27.89a8.86,8.86,0,0,1,.51-1.2,28.53,28.53,0,0,1,1.64-2.58,22.87,22.87,0,0,1,2.75-3.36,13.94,13.94,0,0,1,4.05-2.67,12.53,12.53,0,0,1,5.33-1.21,13.89,13.89,0,0,1,8.53,2.76,16.53,16.53,0,0,1,5.07,5.51l1.38,2.92q8.61,24.1,10.16,27.55L707.42,121q4.13-11,12.39-11A16,16,0,0,1,726.7,111.74Z"/><path class="cls-1" d="M796.94,111.22q15.31,0,28.15,13.6T837.91,156a45,45,0,0,1-12.74,31.93q-12.74,13.51-28.23,13.52-13.77,0-20-8.27-1.38,8.44-14.81,8.44a29.63,29.63,0,0,1-8.6-1A7.28,7.28,0,0,1,749,197a14.66,14.66,0,0,1-1.54-4.56,48.3,48.3,0,0,1-.26-5.94V83.67a48.52,48.52,0,0,1,.26-5.94A13.83,13.83,0,0,1,749,73.26a7.36,7.36,0,0,1,4.57-3.53,30,30,0,0,1,8.78-1,29.29,29.29,0,0,1,8.6,1,7.24,7.24,0,0,1,4.57,3.61,15.12,15.12,0,0,1,1.55,4.57,50.89,50.89,0,0,1,.25,5.94v35.8Q784.2,111.22,796.94,111.22Zm-15.06,55.6a13.68,13.68,0,0,0,10.58,4.65,15.61,15.61,0,0,0,15.33-15,15.49,15.49,0,0,0-4.14-10.41,13.87,13.87,0,0,0-11-4.73,13.52,13.52,0,0,0-10.94,4.82,15.8,15.8,0,0,0-4,10.32A15,15,0,0,0,781.88,166.82Z"/><path class="cls-1" d="M923,111.05a29.29,29.29,0,0,1,8.6,1,7.22,7.22,0,0,1,4.56,3.61,14.58,14.58,0,0,1,1.55,4.57,48.3,48.3,0,0,1,.26,5.94v60.25a48.3,48.3,0,0,1-.26,5.94,13.69,13.69,0,0,1-1.55,4.48,7.27,7.27,0,0,1-4.56,3.52,30,30,0,0,1-8.78,1q-7.74,0-10.93-2.33a9.28,9.28,0,0,1-3.7-6.8q-6.37,9.13-20.66,9.13-15.5,0-28.23-13.6A45.08,45.08,0,0,1,846.52,156q0-17.73,12.82-31.25t28.15-13.51a27,27,0,0,1,10.68,2.06,23.76,23.76,0,0,1,6.71,3.88,24.1,24.1,0,0,1,3.1,3.53,9.88,9.88,0,0,1,3.7-7.23Q914.86,111,923,111.05ZM892.14,171.3a13.49,13.49,0,0,0,10.41-4.65,15,15,0,0,0,4.22-10.33,15.84,15.84,0,0,0-4-10.33,13.56,13.56,0,0,0-10.93-4.82A13.87,13.87,0,0,0,880.86,146a15.66,15.66,0,0,0-4.21,10.5,14.3,14.3,0,0,0,4.47,10.25A14.85,14.85,0,0,0,892.14,171.3Z"/><path class="cls-1" d="M983.38,171.3q5.68,0,8.44,2.93t2.75,12.22q0,9-2.93,12t-8.43,3q-17.4,0-24.45-8.35t-7.06-27.8V83.16a50.41,50.41,0,0,1,.26-5.94,13.93,13.93,0,0,1,1.55-4.48,7.31,7.31,0,0,1,4.56-3.53,30.41,30.41,0,0,1,8.78-1,26.36,26.36,0,0,1,8.53,1.12,8,8,0,0,1,4.56,3.61,13.16,13.16,0,0,1,1.63,4.48,50.41,50.41,0,0,1,.26,5.94V166Q981.83,171.3,983.38,171.3Zm51.65,0q7.4,0,11.19,2.93t3.78,12.22q0,9-4,12t-11.28,3q-36.5,0-36.49-36.15L998,83.16a50.41,50.41,0,0,1,.26-5.94,13,13,0,0,1,1.64-4.48,7.62,7.62,0,0,1,4.65-3.53,30.29,30.29,0,0,1,8.77-1,26.36,26.36,0,0,1,8.53,1.12,7.6,7.6,0,0,1,4.47,3.61,15.88,15.88,0,0,1,1.64,4.57,37.87,37.87,0,0,1,.34,5.85V166c0,2.18.46,3.62,1.38,4.31S1032.38,171.3,1035,171.3Z"/><path class="cls-2" d="M257.05,128.54a128.43,128.43,0,1,1-3.76-31A128.52,128.52,0,0,1,257.05,128.54Z"/><path class="cls-1" d="M128.53,249.37A120.84,120.84,0,1,1,249.36,128.53,121,121,0,0,1,128.53,249.37Zm0-236.09A115.25,115.25,0,1,0,243.77,128.53,115.38,115.38,0,0,0,128.53,13.28Z"/><path class="cls-1" d="M249.36,128.53A121,121,0,0,1,132.15,249.32c-1.21,0-2.41.05-3.62.05a120.13,120.13,0,0,1-65-19c2-.92,4-1.89,6-2.89,45.25-23.67,57.59-69.75,95.65-105.11,16.49-15.32,38.7-29.47,69.44-39,1.77-.54,3.57-1.08,5.4-1.59a120.13,120.13,0,0,1,9.37,44.44C249.36,127,249.36,127.77,249.36,128.53Z"/><path class="cls-1" d="M54.46,172.72a.57.57,0,0,1-.43-.2.56.56,0,0,1,.08-.79l12-9.86a.55.55,0,0,1,.78.08.57.57,0,0,1-.07.79l-12,9.86A.6.6,0,0,1,54.46,172.72Z"/><path class="cls-1" d="M58.66,208.67a.55.55,0,0,1-.44-.21.57.57,0,0,1,.08-.79l28.14-23.06a.56.56,0,1,1,.71.87L59,208.54A.58.58,0,0,1,58.66,208.67Z"/><circle class="cls-1" cx="102.51" cy="179.02" r="5.64"/><circle class="cls-3" cx="129.01" cy="120.19" r="48.86"/><circle class="cls-1" cx="125.08" cy="116.1" r="48.86"/><path class="cls-1" d="M24,179.84a1.68,1.68,0,0,1-1.06-3l39.56-32.43a1.68,1.68,0,0,1,2.13,2.6L25.11,179.46A1.67,1.67,0,0,1,24,179.84Z"/><path class="cls-1" d="M41.12,205.54a1.71,1.71,0,0,1-1.3-.61,1.68,1.68,0,0,1,.24-2.36l34.19-28a1.68,1.68,0,1,1,2.13,2.59l-34.2,28A1.62,1.62,0,0,1,41.12,205.54Z"/><ellipse class="cls-3" cx="185.08" cy="177.49" rx="19.14" ry="2.89" transform="translate(-71.24 169.86) rotate(-42.1)"/></g></g></svg>