<svg width="1600" height="1600" viewBox="0 0 1600 1600" fill="none" xmlns="http://www.w3.org/2000/svg">
<path d="M800.001 1527.2C1201.62 1527.2 1527.2 1201.62 1527.2 800C1527.2 398.378 1201.62 72.7998 800.001 72.7998C398.379 72.7998 72.8008 398.378 72.8008 800C72.8008 1201.62 398.379 1527.2 800.001 1527.2Z" fill="#33A9FF"/>
<path d="M1188.1 1483.4C840.299 1684.2 416.999 1602.2 242.699 1300.3C242.699 1300.3 250.299 1254.9 362.299 1231.3C386.699 1226.1 479.799 1219.1 545.999 1141.6C559.299 1126.1 570.499 1070.6 689.499 1048.3C792.899 1028.9 785.799 1047.8 859.699 958.2C911.299 895.7 924.599 855.9 1014.9 839.5C1080.1 827.6 1123 836.8 1167.1 773.5C1196.8 730.9 1220.8 676.8 1327.2 663.5C1456.9 647.3 1502.2 573.1 1502.2 573.1C1676.6 875.1 1535.9 1282.6 1188.1 1483.4Z" fill="white"/>
<path d="M1003.67 1041C1062.26 1007.17 1103.49 968.894 1095.76 955.502C1088.03 942.11 1034.26 958.676 975.673 992.504C917.084 1026.33 875.856 1064.61 883.588 1078C891.32 1091.39 945.084 1074.83 1003.67 1041Z" fill="#C7D8EF"/>
<path d="M1584.9 644.8C1512.7 277.2 1188.7 0 800 0C358.2 0 0 358.2 0 800C0 1036.3 102.4 1248.7 265.4 1395.1C407.1 1522.5 594.5 1600 800 1600C1241.8 1600 1600 1241.8 1600 800C1600 746.9 1594.8 695 1584.9 644.8ZM800 1520C624.2 1520 463 1457 338 1352.2C180.3 1220.2 80 1021.8 80 800C80 402.4 402.4 80 800 80C1159.2 80 1456.9 343 1511.2 686.9C1517 723.7 1520 761.5 1520 800C1520 1197.6 1197.6 1520 800 1520Z" fill="#EBF6FF"/>
<path d="M586.501 1012.1C607.322 1012.1 624.201 995.221 624.201 974.4C624.201 953.579 607.322 936.7 586.501 936.7C565.68 936.7 548.801 953.579 548.801 974.4C548.801 995.221 565.68 1012.1 586.501 1012.1Z" fill="white"/>
<path d="M617 983.4C608.5 1002.4 586.2 1011 567.2 1002.5C561.2 999.8 556.2 995.7 552.5 990.8C556.2 998.6 562.6 1005.1 571.1 1008.9C590.1 1017.4 612.4 1008.9 620.9 989.8C626.7 976.8 624.6 962.3 616.5 951.7C621.2 961.3 621.7 972.8 617 983.4Z" fill="#C7D8EF"/>
<path d="M560 1125.7C569.721 1125.7 577.6 1117.82 577.6 1108.1C577.6 1098.38 569.721 1090.5 560 1090.5C550.28 1090.5 542.4 1098.38 542.4 1108.1C542.4 1117.82 550.28 1125.7 560 1125.7Z" fill="white"/>
<path d="M574.2 1112.5C570.1 1121.3 559.7 1125.1 550.9 1121.1C548.1 1119.8 545.8 1117.9 544.1 1115.6C545.8 1119.3 548.7 1122.3 552.7 1124.2C561.5 1128.3 572 1124.5 576 1115.6C578.8 1109.6 577.9 1102.8 574.2 1097.8C576.3 1102.3 576.4 1107.6 574.2 1112.5Z" fill="#C7D8EF"/>
<path d="M389.1 1195.8C398.82 1195.8 406.7 1187.92 406.7 1178.2C406.7 1168.48 398.82 1160.6 389.1 1160.6C379.38 1160.6 371.5 1168.48 371.5 1178.2C371.5 1187.92 379.38 1195.8 389.1 1195.8Z" fill="white"/>
<path d="M403.8 1180.4C401.1 1189.7 391.4 1195.1 382 1192.4C379 1191.5 376.5 1190 374.5 1188C376.7 1191.4 380.1 1194 384.3 1195.2C393.6 1197.9 403.4 1192.5 406.1 1183.2C407.9 1176.8 406 1170.3 401.6 1165.9C404.3 1169.9 405.3 1175.2 403.8 1180.4Z" fill="#C7D8EF"/>
<path d="M290.2 1134.5C295.061 1134.5 299 1130.56 299 1125.7C299 1120.84 295.061 1116.9 290.2 1116.9C285.34 1116.9 281.4 1120.84 281.4 1125.7C281.4 1130.56 285.34 1134.5 290.2 1134.5Z" fill="white"/>
<path d="M297.501 1126.9C296.101 1131.5 291.201 1134.2 286.501 1132.8C285.001 1132.4 283.801 1131.6 282.801 1130.5C283.901 1132.2 285.601 1133.5 287.601 1134.1C292.201 1135.5 297.201 1132.9 298.601 1128.2C299.601 1125 298.601 1121.7 296.501 1119.5C297.801 1121.7 298.301 1124.3 297.501 1126.9Z" fill="#C7D8EF"/>
<path d="M473.7 1072.8C483.42 1072.8 491.3 1064.92 491.3 1055.2C491.3 1045.48 483.42 1037.6 473.7 1037.6C463.979 1037.6 456.1 1045.48 456.1 1055.2C456.1 1064.92 463.979 1072.8 473.7 1072.8Z" fill="white"/>
<path d="M488.399 1057C485.999 1066.4 476.399 1072 466.999 1069.6C463.999 1068.8 461.399 1067.3 459.299 1065.4C461.599 1068.7 465.099 1071.2 469.199 1072.3C478.599 1074.7 488.199 1069.1 490.599 1059.7C492.299 1053.3 490.199 1046.8 485.699 1042.5C488.699 1046.5 489.799 1051.8 488.399 1057Z" fill="#C7D8EF"/>
<path d="M343.1 1095.4C341.9 1095.4 340.8 1094.9 340 1093.9C338.6 1092.2 338.9 1089.7 340.6 1088.3L535.9 933C537.6 931.6 540.1 931.9 541.5 933.6C542.9 935.3 542.6 937.8 540.9 939.2L345.6 1094.5C344.9 1095.1 344 1095.4 343.1 1095.4Z" fill="white"/>
<path d="M298.1 1006.3C296.9 1006.3 295.8 1005.8 295 1004.8C293.6 1003.1 293.9 1000.6 295.6 999.2L490.9 843.9C492.6 842.5 495.1 842.8 496.5 844.5C497.9 846.2 497.6 848.7 495.9 850.1L300.6 1005.4C299.8 1006.1 299 1006.3 298.1 1006.3Z" fill="white"/>
<path d="M439.399 955.7C438.799 955.7 438.199 955.4 437.799 954.9C437.099 954 437.299 952.8 438.099 952.1L510.999 894.1C511.899 893.4 513.099 893.6 513.799 894.4C514.499 895.3 514.299 896.5 513.499 897.2L440.599 955.2C440.299 955.5 439.899 955.7 439.399 955.7Z" fill="white"/>
<path d="M421.899 1158.3C421.299 1158.3 420.699 1158 420.299 1157.5C419.599 1156.6 419.799 1155.4 420.599 1154.7L493.499 1096.7C494.399 1096 495.599 1096.2 496.299 1097C496.999 1097.9 496.799 1099.1 495.999 1099.8L423.099 1157.8C422.699 1158.1 422.299 1158.3 421.899 1158.3Z" fill="white"/>
<path d="M414.899 850C414.299 850 413.699 849.7 413.299 849.2C412.599 848.3 412.799 847.1 413.599 846.4L468.199 803C469.099 802.3 470.299 802.5 470.999 803.3C471.699 804.2 471.499 805.4 470.699 806.1L416.099 849.5C415.799 849.9 415.399 850 414.899 850Z" fill="white"/>
<path d="M778.1 964.2C932.739 964.2 1058.1 838.84 1058.1 684.2C1058.1 529.56 932.739 404.2 778.1 404.2C623.46 404.2 498.1 529.56 498.1 684.2C498.1 838.84 623.46 964.2 778.1 964.2Z" fill="white"/>
<path d="M778.1 964.2C932.739 964.2 1058.1 838.84 1058.1 684.2C1058.1 529.56 932.739 404.2 778.1 404.2C623.46 404.2 498.1 529.56 498.1 684.2C498.1 838.84 623.46 964.2 778.1 964.2Z" fill="white"/>
<path d="M1058.1 684.2C1058.1 838.8 932.701 964.2 778.101 964.2C668.201 964.2 573.101 900.9 527.301 808.8C578.601 868.3 654.601 906 739.301 906C893.901 906 1019.3 780.6 1019.3 626C1019.3 581.2 1008.8 539 990.101 501.4C1032.5 550.4 1058.1 614.3 1058.1 684.2Z" fill="#C7D8EF"/>
</svg>
