<svg width="2545" height="640" viewBox="0 0 2545 640" fill="none" xmlns="http://www.w3.org/2000/svg">
<path d="M755.2 436.2C748 427.3 744.4 419.4 744.4 412.3C744.4 405.2 750.3 395.9 762.2 384.3C769.1 377.7 776.5 374.3 784.2 374.3C791.9 374.3 802.7 381.2 816.6 395.1C820.5 399.8 826 404.3 833.2 408.6C840.4 412.9 847 415 853.1 415C878.8 415 891.7 404.5 891.7 383.4C891.7 377 888.2 371.7 881.1 367.4C874 363.1 865.3 360 854.7 358.1C844.2 356.2 832.8 353.1 820.7 348.8C808.5 344.5 797.2 339.5 786.7 333.6C776.2 327.8 767.4 318.6 760.3 306C753.2 293.4 749.7 278.3 749.7 260.5C749.7 236.2 758.8 214.9 776.9 196.8C795 178.7 819.7 169.6 851 169.6C867.6 169.6 882.8 171.7 896.5 176C910.2 180.3 919.7 184.7 924.9 189.1L935.3 197C943.9 205 948.2 211.8 948.2 217.3C948.2 222.8 944.9 230.4 938.2 240.1C928.8 253.9 919.1 260.9 909.1 260.9C903.3 260.9 896.1 258.1 887.5 252.6C886.7 252 885.1 250.7 882.7 248.4C880.3 246.2 878.2 244.4 876.3 243C870.5 239.4 863.1 237.6 854.1 237.6C845.1 237.6 837.6 239.7 831.7 244C825.7 248.3 822.8 254.2 822.8 261.9C822.8 269.5 826.3 275.7 833.4 280.4C840.5 285.1 849.2 288.3 859.8 289.9C870.3 291.6 881.8 294.1 894.3 297.6C906.8 301.1 918.2 305.3 928.8 310.3C939.3 315.3 948.1 323.9 955.2 336.2C962.3 348.5 965.8 363.7 965.8 381.7C965.8 399.7 962.2 415.5 955 429.2C947.8 442.9 938.4 453.5 926.8 461C904.4 475.7 880.4 483 855 483C842 483 829.7 481.4 818.1 478.2C806.5 475 797.1 471.1 789.9 466.4C775.2 457.5 765 449 759.2 440.7L755.2 436.2Z" fill="#1E2744"/>
<path d="M1114.3 260.2C1142 260.2 1165 270.8 1183.4 292C1201.8 313.2 1211 339 1211 369.4V442.5C1211 448.9 1210.8 453.6 1210.4 456.8C1210 460 1208.8 463.5 1206.9 467.4C1203 474.9 1192.2 478.6 1174.5 478.6C1154.8 478.6 1143.5 473.5 1140.5 463.2C1138.8 458.5 1138 451.4 1138 442V369C1138 357.7 1134.7 348.8 1128.2 342.4C1121.7 336 1113 332.9 1102 332.9C1091.1 332.9 1082.2 336.2 1075.4 342.9C1068.6 349.5 1065.2 358.3 1065.2 369.1V442.6C1065.2 449 1065 453.7 1064.6 456.9C1064.2 460.1 1062.9 463.6 1060.7 467.5C1057.1 475 1046.4 478.7 1028.7 478.7C1011.3 478.7 1000.6 475 996.7 467.5C994.8 463.3 993.6 459.7 993.2 456.5C992.8 453.3 992.6 448.5 992.6 442.2V295.2C992.6 289.1 992.8 284.5 993.2 281.3C993.6 278.1 994.9 274.6 997.1 270.7C1001 263.8 1011.6 260.3 1029.1 260.3C1046 260.3 1056.4 263.5 1060.2 269.8C1063 274.5 1064.4 280.2 1064.4 286.8C1065.5 284.9 1068 282.1 1071.9 278.5C1075.8 274.9 1079.5 272 1083.1 269.8C1092.5 263.4 1102.9 260.2 1114.3 260.2Z" fill="#1E2744"/>
<path d="M1272.8 287.6C1296 266 1322.6 255.2 1352.5 255.2C1382.4 255.2 1408.8 265.9 1431.8 287.4C1454.8 308.8 1466.3 336.2 1466.3 369.4C1466.3 392.4 1460.3 412.8 1448.5 430.6C1436.6 448.4 1422.1 461.6 1405.1 470C1388.1 478.4 1370.4 482.7 1352.2 482.7C1333.9 482.7 1316.2 478.2 1299.1 469.2C1281.9 460.2 1267.5 446.9 1255.7 429.3C1243.9 411.7 1238.1 391.9 1238.1 369.7C1238 336.6 1249.6 309.2 1272.8 287.6ZM1324.7 399.5C1333.6 406.3 1342.6 409.7 1351.7 409.7C1360.8 409.7 1370 406.2 1379.1 399.3C1388.2 392.4 1392.8 382.1 1392.8 368.6C1392.8 355 1388.5 344.9 1379.9 338.3C1371.3 331.7 1362 328.3 1352.1 328.3C1342.1 328.3 1332.9 331.8 1324.3 338.7C1315.7 345.6 1311.4 355.8 1311.4 369.2C1311.4 382.6 1315.9 392.7 1324.7 399.5Z" fill="#1E2744"/>
<path d="M1764.8 261.9C1782.5 269.7 1791.4 279.2 1791.4 290.5C1791.4 295.2 1789.2 302.7 1784.8 313.1C1780.4 323.5 1776.6 332.5 1773.6 340.3L1727.9 451.6C1723.7 463.8 1716.8 472.4 1707.1 477.3C1702.9 479.2 1697.7 480.2 1691.3 480.2C1684.9 480.2 1678.8 477.8 1672.8 472.9C1666.8 468.1 1662.9 463.1 1661 458.2L1657.7 451.1C1655.5 445.6 1647.3 424 1633.2 386.3C1630.4 392.9 1626.3 403.8 1621 418.9C1615.6 434 1612.1 443.4 1610.6 447.1C1609.1 450.8 1608.1 453.3 1607.7 454.6C1607.3 455.8 1606.1 458.1 1604.2 461.5C1602.3 464.8 1600 467.7 1597.6 470.2C1591 476.8 1583.3 480.2 1574.8 480.2C1566.2 480.2 1559 477.8 1553.2 472.9C1547.4 468.1 1543.5 463.1 1541.6 458.2L1478.9 305.4C1476.1 297.1 1474.7 291.7 1474.7 289.2C1474.7 278.1 1482.6 269.4 1498.4 263C1507.3 259.4 1514.4 257.6 1520 257.6C1525.5 257.6 1530 258.8 1533.5 261.1C1537 263.5 1539.4 265.8 1540.8 268.2C1542.2 270.6 1543.3 273 1544.1 275.5C1548.8 286.6 1558.6 312.6 1573.6 353.5L1598.1 286.2C1599.8 280.7 1602.8 275.8 1607.2 271.7C1615.2 263.7 1623.4 259.7 1631.7 259.7C1640 259.7 1647.1 261.9 1653.1 266.3C1659 270.7 1663.1 275.2 1665.3 279.6L1668.6 286.7C1682.4 325.5 1690.6 347.6 1693.1 353.1L1718.4 284.2C1725 266.5 1735 257.6 1748.3 257.6C1753.4 257.7 1758.9 259.1 1764.8 261.9Z" fill="#1E2744"/>
<path d="M1934.1 260.6C1958.7 260.6 1981.4 271.5 2002 293.4C2022.6 315.3 2032.9 340.7 2032.9 369.6C2032.9 398.5 2022.7 423.8 2002.2 445.6C1981.7 467.3 1959.7 478.2 1936.2 478.2C1912.7 478.2 1895.9 471.6 1886 458.3C1883.8 471.9 1871.9 478.6 1850.3 478.6C1832.9 478.6 1822.2 474.9 1818.3 467.4C1816.4 463.2 1815.2 459.6 1814.8 456.4C1814.4 453.2 1814.2 448.4 1814.2 442.1V194.2C1814.2 187.8 1814.4 183.1 1814.8 179.9C1815.2 176.7 1816.4 173.2 1818.3 169.3C1822.2 161.8 1833 158.1 1850.7 158.1C1868.1 158.1 1878.7 161.8 1882.3 169.3C1884.5 173.5 1885.8 177.1 1886.2 180.3C1886.6 183.5 1886.8 188.3 1886.8 194.6V281C1897.9 267.4 1913.6 260.6 1934.1 260.6ZM1897.8 394.7C1904.6 402.2 1913.1 405.9 1923.3 405.9C1933.5 405.9 1942.3 402.2 1949.5 394.7C1956.7 387.2 1960.3 378.9 1960.3 369.8C1960.3 360.7 1957 352.3 1950.3 344.7C1943.7 337.1 1934.8 333.3 1923.7 333.3C1912.6 333.3 1903.8 337.2 1897.3 344.9C1890.8 352.7 1887.5 361 1887.5 370C1887.6 379 1891 387.3 1897.8 394.7Z" fill="#1E2744"/>
<path d="M2201.9 283.5C2203.6 268 2214.5 260.3 2234.7 260.3C2245.5 260.3 2253.5 261.1 2258.8 262.8C2264.1 264.5 2267.7 267.4 2269.8 271.5C2271.9 275.7 2273.1 279.3 2273.5 282.5C2273.9 285.7 2274.1 290.5 2274.1 296.8V442C2274.1 448.4 2273.9 453.1 2273.5 456.3C2273.1 459.5 2271.9 463.1 2270 467.3C2266.1 474.5 2256.6 478.1 2241.6 478.1C2226.5 478.1 2216.4 476.2 2211.3 472.5C2206.2 468.8 2203.2 463.3 2202.4 456.1C2192.2 470.8 2175.1 478.1 2151.1 478.1C2127.2 478.1 2104.9 467.2 2084.5 445.3C2064 423.4 2053.8 398 2053.8 369.1C2053.8 340.2 2064.1 314.9 2084.7 293.1C2105.3 271.4 2127.9 260.5 2152.6 260.5C2162 260.5 2170.6 262.2 2178.3 265.5C2186 268.8 2191.4 271.9 2194.5 274.8C2197.5 277.9 2200 280.7 2201.9 283.5ZM2126.3 369.8C2126.3 378.9 2129.9 387.2 2137.1 394.5C2144.3 401.8 2153 405.5 2163.3 405.5C2173.5 405.5 2182 401.8 2188.8 394.3C2195.6 386.8 2199 378.6 2199 369.6C2199 360.6 2195.7 352.2 2189.2 344.5C2182.7 336.8 2174 332.9 2163 332.9C2152.1 332.9 2143.2 336.8 2136.4 344.5C2129.7 352.2 2126.3 360.7 2126.3 369.8Z" fill="#1E2744"/>
<path d="M2383.7 405.5C2392.8 405.5 2399.6 407.9 2404 412.6C2408.4 417.3 2410.6 427 2410.6 441.7C2410.6 456.4 2408.2 466.1 2403.5 471C2398.8 475.8 2392 478.3 2383.2 478.3C2355.2 478.3 2335.6 471.6 2324.3 458.2C2312.9 444.8 2307.3 422.4 2307.3 391.2V193C2307.3 186.6 2307.5 181.9 2307.9 178.7C2308.3 175.5 2309.5 171.9 2311.4 167.7C2315.3 160.5 2326.1 156.9 2343.8 156.9C2360.7 156.9 2371.2 160.8 2375.4 168.5C2377.6 172.4 2378.9 175.9 2379.3 179.1C2379.7 182.3 2379.9 187.1 2379.9 193.4V392.7C2380 401.2 2381.2 405.5 2383.7 405.5ZM2495.4 403C2497.6 404.7 2503.3 405.5 2512.4 405.5C2521.5 405.5 2529.1 407.9 2535.2 412.6C2541.3 417.3 2544.3 427 2544.3 441.7C2544.3 456.4 2541 466.1 2534.5 471C2528 475.8 2518.9 478.3 2507.3 478.3C2448.6 478.3 2419.3 449.2 2419.3 391.1L2418.9 193.1C2418.9 186.7 2419.1 182 2419.5 178.8C2419.9 175.6 2421.2 172 2423.4 167.8C2427.6 160.6 2438.3 157 2455.8 157C2472.7 157 2483.2 160.9 2487.4 168.6C2490.4 174.7 2492 183 2492 193.5V392.8C2492.1 397.9 2493.2 401.4 2495.4 403Z" fill="#1E2744"/>
<path d="M319.999 610.88C480.648 610.88 610.879 480.649 610.879 320C610.879 159.352 480.648 29.1201 319.999 29.1201C159.351 29.1201 29.1191 159.352 29.1191 320C29.1191 480.649 159.351 610.88 319.999 610.88Z" fill="#33A9FF"/>
<path d="M475.24 593.36C336.12 673.68 166.8 640.88 97.0801 520.12C97.0801 520.12 100.12 501.96 144.92 492.52C154.68 490.44 191.92 487.64 218.4 456.64C223.72 450.44 228.2 428.24 275.8 419.32C317.16 411.56 314.32 419.12 343.88 383.28C364.52 358.28 369.84 342.36 405.96 335.8C432.04 331.04 449.2 334.72 466.84 309.4C478.72 292.36 488.32 270.72 530.88 265.4C582.76 258.92 600.88 229.24 600.88 229.24C670.64 350.04 614.36 513.04 475.24 593.36Z" fill="white"/>
<path d="M401.47 416.4C424.906 402.869 441.397 387.557 438.304 382.201C435.211 376.844 413.706 383.471 390.27 397.001C366.834 410.532 350.343 425.844 353.436 431.201C356.529 436.557 378.034 429.931 401.47 416.4Z" fill="#C7D8EF"/>
<path d="M633.96 257.92C605.08 110.88 475.48 0 320 0C143.28 0 0 143.28 0 320C0 414.52 40.96 499.48 106.16 558.04C162.84 609 237.8 640 320 640C496.72 640 640 496.72 640 320C640 298.76 637.92 278 633.96 257.92ZM320 608C249.68 608 185.2 582.8 135.2 540.88C72.12 488.08 32 408.72 32 320C32 160.96 160.96 32 320 32C463.68 32 582.76 137.2 604.48 274.76C606.8 289.48 608 304.6 608 320C608 479.04 479.04 608 320 608Z" fill="#EBF6FF"/>
<path d="M234.6 404.84C242.928 404.84 249.68 398.088 249.68 389.76C249.68 381.431 242.928 374.68 234.6 374.68C226.271 374.68 219.52 381.431 219.52 389.76C219.52 398.088 226.271 404.84 234.6 404.84Z" fill="white"/>
<path d="M246.8 393.36C243.4 400.96 234.48 404.4 226.88 401C224.48 399.92 222.48 398.28 221 396.32C222.48 399.44 225.04 402.04 228.44 403.56C236.04 406.96 244.96 403.56 248.36 395.92C250.68 390.72 249.84 384.92 246.6 380.68C248.48 384.52 248.68 389.12 246.8 393.36Z" fill="#C7D8EF"/>
<path d="M223.999 450.28C227.887 450.28 231.039 447.128 231.039 443.24C231.039 439.352 227.887 436.2 223.999 436.2C220.111 436.2 216.959 439.352 216.959 443.24C216.959 447.128 220.111 450.28 223.999 450.28Z" fill="white"/>
<path d="M229.679 445C228.039 448.52 223.879 450.04 220.359 448.44C219.239 447.92 218.319 447.16 217.639 446.24C218.319 447.72 219.479 448.92 221.079 449.68C224.599 451.32 228.799 449.8 230.399 446.24C231.519 443.84 231.159 441.12 229.679 439.12C230.519 440.92 230.559 443.04 229.679 445Z" fill="#C7D8EF"/>
<path d="M155.64 478.32C159.528 478.32 162.68 475.168 162.68 471.28C162.68 467.392 159.528 464.24 155.64 464.24C151.752 464.24 148.6 467.392 148.6 471.28C148.6 475.168 151.752 478.32 155.64 478.32Z" fill="white"/>
<path d="M161.519 472.159C160.439 475.879 156.559 478.039 152.799 476.959C151.599 476.599 150.599 475.999 149.799 475.199C150.679 476.559 152.039 477.599 153.719 478.079C157.439 479.159 161.359 476.999 162.439 473.279C163.159 470.719 162.399 468.119 160.639 466.359C161.719 467.959 162.119 470.079 161.519 472.159Z" fill="#C7D8EF"/>
<path d="M116.081 453.8C118.025 453.8 119.601 452.224 119.601 450.28C119.601 448.336 118.025 446.76 116.081 446.76C114.137 446.76 112.561 448.336 112.561 450.28C112.561 452.224 114.137 453.8 116.081 453.8Z" fill="white"/>
<path d="M119.001 450.76C118.441 452.6 116.481 453.68 114.601 453.12C114.001 452.96 113.521 452.64 113.121 452.2C113.561 452.88 114.241 453.4 115.041 453.64C116.881 454.2 118.881 453.16 119.441 451.28C119.841 450 119.441 448.68 118.601 447.8C119.121 448.68 119.321 449.72 119.001 450.76Z" fill="#C7D8EF"/>
<path d="M189.479 429.12C193.368 429.12 196.519 425.968 196.519 422.08C196.519 418.192 193.368 415.04 189.479 415.04C185.591 415.04 182.439 418.192 182.439 422.08C182.439 425.968 185.591 429.12 189.479 429.12Z" fill="white"/>
<path d="M195.361 422.8C194.401 426.56 190.561 428.8 186.801 427.84C185.601 427.52 184.561 426.92 183.721 426.16C184.641 427.48 186.041 428.48 187.681 428.92C191.441 429.88 195.281 427.64 196.241 423.88C196.921 421.32 196.081 418.72 194.281 417C195.481 418.6 195.921 420.72 195.361 422.8Z" fill="#C7D8EF"/>
<path d="M137.239 438.16C136.759 438.16 136.319 437.96 135.999 437.56C135.439 436.88 135.559 435.88 136.239 435.32L214.359 373.2C215.039 372.64 216.039 372.76 216.599 373.44C217.159 374.12 217.039 375.12 216.359 375.68L138.239 437.8C137.959 438.04 137.599 438.16 137.239 438.16Z" fill="white"/>
<path d="M119.239 402.52C118.759 402.52 118.319 402.32 117.999 401.92C117.439 401.24 117.559 400.24 118.239 399.68L196.359 337.56C197.039 337 198.039 337.12 198.599 337.8C199.159 338.48 199.039 339.48 198.359 340.04L120.239 402.16C119.919 402.44 119.599 402.52 119.239 402.52Z" fill="white"/>
<path d="M175.76 382.28C175.52 382.28 175.28 382.16 175.12 381.96C174.84 381.6 174.92 381.12 175.24 380.84L204.4 357.64C204.76 357.36 205.24 357.44 205.52 357.76C205.8 358.12 205.72 358.6 205.4 358.88L176.24 382.08C176.12 382.2 175.96 382.28 175.76 382.28Z" fill="white"/>
<path d="M168.76 463.32C168.52 463.32 168.28 463.2 168.12 463C167.84 462.64 167.92 462.16 168.24 461.88L197.4 438.68C197.76 438.4 198.24 438.48 198.52 438.8C198.8 439.16 198.72 439.64 198.4 439.92L169.24 463.12C169.08 463.24 168.92 463.32 168.76 463.32Z" fill="white"/>
<path d="M165.96 340C165.72 340 165.48 339.88 165.32 339.68C165.04 339.32 165.12 338.84 165.44 338.56L187.28 321.2C187.64 320.92 188.12 321 188.4 321.32C188.68 321.68 188.6 322.16 188.28 322.44L166.44 339.8C166.32 339.96 166.16 340 165.96 340Z" fill="white"/>
<path d="M311.24 385.68C373.096 385.68 423.24 335.536 423.24 273.68C423.24 211.824 373.096 161.68 311.24 161.68C249.384 161.68 199.24 211.824 199.24 273.68C199.24 335.536 249.384 385.68 311.24 385.68Z" fill="white"/>
<path d="M311.24 385.68C373.096 385.68 423.24 335.536 423.24 273.68C423.24 211.824 373.096 161.68 311.24 161.68C249.384 161.68 199.24 211.824 199.24 273.68C199.24 335.536 249.384 385.68 311.24 385.68Z" fill="white"/>
<path d="M423.24 273.68C423.24 335.52 373.08 385.68 311.24 385.68C267.28 385.68 229.24 360.36 210.92 323.52C231.44 347.32 261.84 362.4 295.72 362.4C357.56 362.4 407.72 312.24 407.72 250.4C407.72 232.48 403.52 215.6 396.04 200.56C413 220.16 423.24 245.72 423.24 273.68Z" fill="#C7D8EF"/>
</svg>
